<svg width="503" height="498" viewBox="0 0 503 498" fill="none" xmlns="http://www.w3.org/2000/svg">
<rect width="503" height="498" rx="10" fill="white"/>
<path d="M76 61C76 67.6274 70.6274 73 64 73C57.3726 73 52 67.6274 52 61C52 54.3726 57.3726 49 64 49C70.6274 49 76 54.3726 76 61Z" fill="#D9D9D9"/>
<path d="M201 61C201 67.6274 195.627 73 189 73C182.373 73 177 67.6274 177 61C177 54.3726 182.373 49 189 49C195.627 49 201 54.3726 201 61Z" fill="#D9D9D9"/>
<path d="M326.5 61C326.5 67.6274 321.127 73 314.5 73C307.873 73 302.5 67.6274 302.5 61C302.5 54.3726 307.873 49 314.5 49C321.127 49 326.5 54.3726 326.5 61Z" fill="#D9D9D9"/>
<path d="M452 61C452 67.6274 446.627 73 440 73C433.373 73 428 67.6274 428 61C428 54.3726 433.373 49 440 49C446.627 49 452 54.3726 452 61Z" fill="#D9D9D9"/>
<path d="M76 186C76 192.627 70.6274 198 64 198C57.3726 198 52 192.627 52 186C52 179.373 57.3726 174 64 174C70.6274 174 76 179.373 76 186Z" fill="#D9D9D9"/>
<path d="M201 186C201 192.627 195.627 198 189 198C182.373 198 177 192.627 177 186C177 179.373 182.373 174 189 174C195.627 174 201 179.373 201 186Z" fill="#D9D9D9"/>
<path d="M326.5 186C326.5 192.627 321.127 198 314.5 198C307.873 198 302.5 192.627 302.5 186C302.5 179.373 307.873 174 314.5 174C321.127 174 326.5 179.373 326.5 186Z" fill="#D9D9D9"/>
<path d="M452 186C452 192.627 446.627 198 440 198C433.373 198 428 192.627 428 186C428 179.373 433.373 174 440 174C446.627 174 452 179.373 452 186Z" fill="#D9D9D9"/>
<path d="M76 311C76 317.627 70.6274 323 64 323C57.3726 323 52 317.627 52 311C52 304.373 57.3726 299 64 299C70.6274 299 76 304.373 76 311Z" fill="#D9D9D9"/>
<path d="M201 311C201 317.627 195.627 323 189 323C182.373 323 177 317.627 177 311C177 304.373 182.373 299 189 299C195.627 299 201 304.373 201 311Z" fill="#D9D9D9"/>
<path d="M326.5 311C326.5 317.627 321.127 323 314.5 323C307.873 323 302.5 317.627 302.5 311C302.5 304.373 307.873 299 314.5 299C321.127 299 326.5 304.373 326.5 311Z" fill="#D9D9D9"/>
<path d="M452 311C452 317.627 446.627 323 440 323C433.373 323 428 317.627 428 311C428 304.373 433.373 299 440 299C446.627 299 452 304.373 452 311Z" fill="#D9D9D9"/>
<path d="M76 436C76 442.627 70.6274 448 64 448C57.3726 448 52 442.627 52 436C52 429.373 57.3726 424 64 424C70.6274 424 76 429.373 76 436Z" fill="#D9D9D9"/>
<path d="M201 436C201 442.627 195.627 448 189 448C182.373 448 177 442.627 177 436C177 429.373 182.373 424 189 424C195.627 424 201 429.373 201 436Z" fill="#D9D9D9"/>
<path d="M326.5 436C326.5 442.627 321.127 448 314.5 448C307.873 448 302.5 442.627 302.5 436C302.5 429.373 307.873 424 314.5 424C321.127 424 326.5 429.373 326.5 436Z" fill="#D9D9D9"/>
<path d="M452 436C452 442.627 446.627 448 440 448C433.373 448 428 442.627 428 436C428 429.373 433.373 424 440 424C446.627 424 452 429.373 452 436Z" fill="#D9D9D9"/>
</svg>
